<svg preserveAspectRatio="xMidYMid meet" data-bbox="0 0.002 445.556 170.999" xmlns="http://www.w3.org/2000/svg" viewBox="0 0.002 445.556 170.999" height="171" width="446" data-type="color" role="presentation" aria-hidden="true" aria-label=""><defs><style>#comp-l7623pgf2 svg [data-color="1"] {fill: #F86800;}</style></defs>
    <g>
        <g clip-path="url(#ba7e7722-deea-4209-bc44-777f6fec5c2c_comp-l7623pgf2)">
            <path fill="#F37021" d="M33.497.032h42.005l9.894 51.724L104.313.032h32.977l-33.497 91.991H61.788L52.069 40.3 33.323 92.023H0L33.497.033Z" data-color="1"></path>
            <path fill="#F37021" d="m342.934.032 35.869-.03-63.454 81.202a81.332 81.332 0 0 1-2.824 3.61c-2.982 3.59-4.474 5.38-6.455 6.348a9.298 9.298 0 0 1-3.02.865h-28.64c-.053 0-.137-.007-.235-.015-2.585-.224-4.353-2.36-4.869-2.987-.854-1.032-1.655-2.436-2.972-9.312-.451-2.353-.675-3.525-.85-4.914-.683-5.4-4.777-34.39-10.511-74.793h30.184c3.013 20.792 6.03 41.584 9.043 62.38L342.934.032Z" data-color="1"></path>
            <path fill="#F37021" d="m414.655 92.027-3.643-23.259c-5.495 7.753-10.994 15.506-16.489 23.259l-74.406.034 1.4-1.791c20.774-26.587 41.543-53.173 62.316-79.756.068-.088.505-.642 1.381-1.75 4.448-5.631 5.347-6.698 6.926-7.555.831-.452 2.121-.99 3.946-1.173h29.16c3.996-.03 4.892.326 6.649 1.567 1.229.865 1.423 3.435 1.423 3.435l1.734 12.329c3.499 24.887 7.002 49.773 10.504 74.66h-30.901ZM373.09 68.765h37.918l-6.076-40.788c-10.614 13.597-21.228 27.19-31.842 40.788Z" data-color="1"></path>
            <path fill="#F37021" d="M216.537.02h-26.959c-32.67 0-59.154 26.485-59.154 59.155 0 18.166 14.728 32.894 32.894 32.894h27.08c32.636 0 59.093-26.458 59.093-59.094 0-18.2-14.754-32.954-32.954-32.954Zm.178 40.15c0 14.667-11.893 26.56-26.56 26.56h-12.17c-8.167 0-14.785-6.618-14.785-14.785 0-14.682 11.904-26.586 26.587-26.586h12.117c8.181 0 14.811 6.633 14.811 14.811Z" data-color="1"></path>
            <path fill="#F37021" d="M162.01 99.442h32.544l7.666 40.078 14.659-40.078h25.555l-25.957 71.279h-32.545l-7.532-40.077-14.527 40.077h-25.82l25.957-71.279Z" data-color="1"></path>
            <path fill="#F37021" d="M327.039 99.433a5261.995 5261.995 0 0 0-14.295 18.299c-14.28-.038-28.56-.072-42.84-.11l-7.677 21.149 12.796-12.394h31.118l-19.263 18.185h-26.807l-2.963 8.083h49.674a9098.873 9098.873 0 0 0-7.089 9.032c-2.39 3.051-4.773 6.102-7.157 9.153h-67.761l25.999-71.4h76.265v.003Z" data-color="1"></path>
            <path fill="#F37021" d="M368.068 148.392c.016-1.628.035-2.816-.751-3.59-.694-.683-1.654-.775-2.14-.782h-25.449c-2.694 0-5.119-.649-7.274-1.954a20.286 20.286 0 0 1-5.59-4.987 22.255 22.255 0 0 1-3.571-6.671c-.808-2.425-1.214-4.805-1.214-7.142 0-2.156.626-4.603 1.886-7.343 1.256-2.74 2.872-5.343 4.849-7.814 1.974-2.47 4.22-4.535 6.736-6.197 2.513-1.662 5.029-2.493 7.545-2.493h67.055a1502.13 1502.13 0 0 0-7.374 9.362 1540.796 1540.796 0 0 0-6.944 8.963c-24.018-.227-44.385 0-44.385 0s-1.62-.034-2.615 1.051c-1.009 1.052-.979 2.63-.964 3.503.023 1.131.046 2.349.98 3.268 1.111 1.092 2.698.963 3.005.933h25.6c2.873 0 5.343.698 7.411 2.087a17.103 17.103 0 0 1 5.051 5.256 24.714 24.714 0 0 1 2.896 6.804c.626 2.425.945 4.672.945 6.736v.808c0 2.338-.539 4.831-1.617 7.48a30.641 30.641 0 0 1-4.242 7.343c-1.754 2.247-3.772 4.11-6.065 5.59-2.292 1.484-4.648 2.224-7.073 2.224-22.967 0-45.933.004-68.9.007 2.429-3.111 4.858-6.223 7.294-9.335 2.205-2.82 4.603-5.882 6.812-8.702 24.598.035 45.212-.026 45.212-.026.463-.084 1.582-.353 2.299-1.313.57-.763.577-1.541.589-3.07l.003.004Z" data-color="1"></path>
            <path fill="#F37021" d="m127.993 171.001 25.991-71.575h-25.44L102.484 171h25.509Z" data-color="1"></path>
            <path fill="#F37021" d="m35.398 170.868 26.12-71.567h25.847L67.88 152.64h33.501a270.658 270.658 0 0 0-3.359 8.797 273.385 273.385 0 0 0-3.214 9.434h-59.41v-.004Z" data-color="1"></path>
        </g>
        <defs fill="none">
            <clipPath id="ba7e7722-deea-4209-bc44-777f6fec5c2c_comp-l7623pgf2">
                <path fill="#ffffff" d="M445.55 0v171H0V0h445.55z"></path>
            </clipPath>
        </defs>
    </g>
</svg>