<svg width="157" height="60" viewBox="0 0 157 60" fill="none" xmlns="http://www.w3.org/2000/svg">
<g clip-path="url(#clip0_6002_2)">
<mask id="mask0_6002_2" style="mask-type:luminance" maskUnits="userSpaceOnUse" x="0" y="-1" width="157" height="61">
<path d="M156.411 -0.000488281V59.9999H0.0771484V-0.000488281H156.411Z" fill="white"/>
</mask>
<g mask="url(#mask0_6002_2)">
<path d="M11.8305 0.0107384H26.5691L30.0407 18.1595L36.6782 0.0107384H48.2491L36.4957 32.2883H21.7571L18.347 14.1399L11.7694 32.2883H0.0771484L11.8305 0.0107384Z" fill="#F37021"/>
<path d="M120.405 0.0107399L132.991 0.000213623L110.726 28.4921C110.408 28.9236 110.078 29.346 109.736 29.7588C108.689 31.0185 108.166 31.6465 107.471 31.9862C107.137 32.1467 106.779 32.2494 106.411 32.2897H96.3619C96.3433 32.2897 96.3138 32.2872 96.2794 32.2844C95.3724 32.2058 94.752 31.4564 94.571 31.2364C94.2713 30.8743 93.9903 30.3816 93.5282 27.969C93.3699 27.1434 93.2913 26.7321 93.2299 26.2448C92.9903 24.35 91.5538 14.1781 89.5419 0.00161713H100.133C101.19 7.29706 102.249 14.5925 103.306 21.8893L120.405 0.0107399Z" fill="#F37021"/>
<path d="M145.571 32.2897L144.293 24.1286C142.364 26.849 140.435 29.5693 138.507 32.2897L112.4 32.3016L112.891 31.6732C120.18 22.3444 127.467 13.016 134.756 3.68863C134.78 3.65776 134.933 3.46337 135.241 3.0746C136.801 1.09881 137.117 0.724424 137.671 0.423722C137.962 0.265126 138.415 0.0763537 139.055 0.0121431H149.287C150.689 0.00161682 151.003 0.126529 151.62 0.561968C152.051 0.865476 152.119 1.76723 152.119 1.76723L152.728 6.0932C153.955 14.8255 155.184 23.5574 156.413 32.2897H145.571ZM130.987 24.1276H144.291L142.159 9.816C138.435 14.5869 134.711 19.3564 130.987 24.1276Z" fill="#F37021"/>
<path d="M76.0549 0.00630569H66.5956C55.1325 0.00630569 45.8398 9.29929 45.8398 20.7624C45.8398 27.1365 51.0076 32.3042 57.3816 32.3042H66.8834C78.3346 32.3042 87.6177 23.0207 87.6177 11.5695C87.6177 5.1835 82.4409 0.00665657 76.0549 0.00665657V0.00630569ZM76.1174 14.094C76.1174 19.2403 71.9444 23.4133 66.7981 23.4133H62.5279C59.6623 23.4133 57.3402 21.0912 57.3402 18.2256C57.3402 13.074 61.517 8.89718 66.669 8.89718H70.9205C73.7911 8.89718 76.1174 11.2246 76.1174 14.094Z" fill="#F37021"/>
<path d="M56.923 34.8916H68.342L71.0318 48.9541L76.1753 34.8916H85.142L76.0343 59.9018H64.615L61.9721 45.8397L56.875 59.9018H47.8153L56.923 34.8916Z" fill="#F37021"/>
<path d="M114.828 34.8887C113.152 37.0252 111.48 39.1655 109.813 41.3094C104.802 41.2961 99.7916 41.2841 94.781 41.2708L92.0873 48.6915L96.5772 44.3427H107.496L100.737 50.7234H91.3309L90.2912 53.5596H107.721C106.891 54.6154 106.062 55.6718 105.233 56.7287C104.395 57.7992 103.559 58.8698 102.722 59.9403H78.9463L88.0687 34.8876H114.828V34.8887Z" fill="#F37021"/>
<path d="M129.224 52.0673C129.23 51.496 129.236 51.0792 128.961 50.8076C128.717 50.568 128.38 50.5357 128.21 50.5332H119.28C118.335 50.5332 117.484 50.3055 116.728 49.8476C115.971 49.3911 115.306 48.7978 114.767 48.0978C114.218 47.3948 113.795 46.6031 113.514 45.7571C113.23 44.9062 113.088 44.0711 113.088 43.2511C113.088 42.4946 113.307 41.636 113.749 40.6746C114.19 39.7132 114.757 38.7999 115.451 37.9329C116.143 37.0662 116.932 36.3416 117.814 35.7585C118.696 35.1753 119.579 34.8837 120.462 34.8837H143.99C143.123 35.9753 142.261 37.0703 141.402 38.1687C140.586 39.214 139.774 40.2623 138.966 41.3136C130.539 41.2339 123.392 41.3136 123.392 41.3136C123.392 41.3136 122.824 41.3016 122.475 41.6823C122.121 42.0515 122.131 42.6051 122.136 42.9115C122.145 43.3083 122.153 43.7357 122.48 44.0581C122.87 44.4413 123.427 44.396 123.535 44.3855H132.517C133.525 44.3855 134.392 44.6304 135.118 45.1178C135.834 45.598 136.438 46.227 136.89 46.962C137.346 47.7023 137.689 48.5071 137.906 49.3494C138.126 50.2002 138.238 50.9887 138.238 51.7129V51.9964C138.238 52.8167 138.048 53.6915 137.67 54.6209C137.296 55.5446 136.795 56.4117 136.182 57.1974C135.566 57.9858 134.858 58.6395 134.054 59.1588C133.249 59.6795 132.423 59.9392 131.572 59.9392C123.513 59.9392 115.455 59.9406 107.396 59.9416C108.249 58.8501 109.101 57.7581 109.956 56.6662C110.729 55.6767 111.571 54.6023 112.346 53.6129C120.977 53.6251 128.21 53.6037 128.21 53.6037C128.372 53.5743 128.765 53.4799 129.016 53.143C129.216 52.8753 129.219 52.6023 129.223 52.0658L129.224 52.0673Z" fill="#F37021"/>
<path d="M44.9876 60.0002L54.1073 34.8862H45.181L36.0371 59.9999H44.9876V60.0002Z" fill="#F37021"/>
<path d="M12.498 59.9535L21.663 34.8422H30.7321L23.8952 53.5577H35.65C35.2392 54.5797 34.8463 55.6087 34.4714 56.6443C34.0754 57.7408 33.6994 58.8444 33.3437 59.9545H12.498V59.9535Z" fill="#F37021"/>
</g>
</g>
<defs>
<clipPath id="clip0_6002_2">
<rect width="156.491" height="60" fill="white"/>
</clipPath>
</defs>
</svg>
